<?xml version="1.0" encoding="UTF-8" standalone="no"?>
<svg width="140px" height="76px" viewBox="0 0 140 76" version="1.1" xmlns="http://www.w3.org/2000/svg" xmlns:xlink="http://www.w3.org/1999/xlink" xmlns:sketch="http://www.bohemiancoding.com/sketch/ns">
    <!-- Generator: Sketch 3.3.1 (12002) - http://www.bohemiancoding.com/sketch -->
    <title>Rectangle 724 Copy 7</title>
    <desc>Created with Sketch.</desc>
    <defs></defs>
    <g id="Page-1" stroke="none" stroke-width="1" fill="none" fill-rule="evenodd" sketch:type="MSPage">
        <path d="M52.6824047,16 L12.0000766,16 C5.36967945,16 0,21.372583 0,28 C0,34.3223136 4.88718102,39.5005212 11.0890498,39.9659449 L11.0890498,39.9659449 C9.1692789,42.0930012 8,44.9101206 8,48 C8,54.6288742 13.3750141,60 20.00543,60 L32.6824621,60 L32.6824621,60 C32.2404795,61.2511157 32,62.5974583 32,64 C32,70.6288742 37.3708911,76 43.996221,76 L76.003779,76 C82.6304846,76 88,70.627417 88,64 C88,62.5973648 87.7595326,61.251042 87.3175953,60 L127.99457,60 C134.620726,60 140,54.627417 140,48 C140,41.3711258 134.624986,36 127.99457,36 L116.945423,36 C118.84521,33.876974 120,31.0734177 120,28 C120,21.3711258 114.627383,16 107.999923,16 L107.317538,16 C107.759521,14.7488843 108,13.4025417 108,12 C108,5.37112582 102.629109,0 96.003779,0 L63.996221,0 C57.3695154,0 52,5.372583 52,12 C52,13.4026352 52.2404674,14.748958 52.6824047,16 Z" id="Rectangle-724-Copy-7" fill="#FFFFFF" sketch:type="MSShapeGroup"></path>
    </g>
</svg>