<?xml version="1.0" encoding="UTF-8" standalone="no"?>
<svg width="73px" height="43px" viewBox="0 0 73 43" version="1.1" xmlns="http://www.w3.org/2000/svg" xmlns:xlink="http://www.w3.org/1999/xlink" xmlns:sketch="http://www.bohemiancoding.com/sketch/ns">
    <!-- Generator: Sketch 3.3.1 (12002) - http://www.bohemiancoding.com/sketch -->
    <title>Group</title>
    <desc>Created with Sketch.</desc>
    <defs></defs>
    <g id="Page-1" stroke="none" stroke-width="1" fill="none" fill-rule="evenodd" sketch:type="MSPage">
        <g id="Group" sketch:type="MSLayerGroup">
            <path d="M12,23.0000006 C12,23.0000006 22,22.5000006 25,17.9999991 C26.7994268,15.3008581 30,9.99999986 37,11.4999996 C44,12.9999994 39,-0.999999968 48,1 C57,2.99999997 55.5,11.5 55.5,11.5" id="Line" stroke="#E5E5E5" stroke-linecap="square" sketch:type="MSShapeGroup"></path>
            <path d="M16.6642645,19.414556 C17.2495972,18.4778279 12.4179444,14.4028038 10.9868321,13.5085456 C9.55571976,12.6142874 7.92106813,12.648716 7.33573547,13.585444 C6.75040281,14.5221721 7.4360427,16.0064798 8.86715501,16.900738 C10.2982673,17.7949962 16.0789319,20.351284 16.6642645,19.414556 Z" id="Oval-133-Copy-5" fill="#D7E3EF" sketch:type="MSShapeGroup"></path>
            <path d="M18.6642645,29.414556 C19.2495972,28.4778279 14.4179444,24.4028038 12.9868321,23.5085456 C11.5557198,22.6142874 9.92106813,22.648716 9.33573547,23.585444 C8.75040281,24.5221721 9.4360427,26.0064798 10.867155,26.900738 C12.2982673,27.7949962 18.0789319,30.351284 18.6642645,29.414556 Z" id="Oval-133-Copy-2" fill="#D7E3EF" sketch:type="MSShapeGroup"></path>
            <path d="M11,35 C12.1045695,35 13,28.7430923 13,27.0555556 C13,25.3680188 12.1045695,24 11,24 C9.8954305,24 9,25.3680188 9,27.0555556 C9,28.7430923 9.8954305,35 11,35 Z" id="Oval-133-Copy-3" fill="#E1E8EA" sketch:type="MSShapeGroup" transform="translate(11.000000, 29.500000) rotate(-38.000000) translate(-11.000000, -29.500000) "></path>
            <path d="M3,8 L1,14.4 L3,19.6" id="Line-Copy-5" stroke="#8BA7B5" stroke-linecap="square" sketch:type="MSShapeGroup"></path>
            <path d="M10.7665106,28.0833613 C13.2985362,26.4742856 13.8163866,19.9023784 13.8163866,17.1409546 C13.8163866,14.3795309 11.5778103,12.1409546 8.81638658,12.1409546 C6.05496283,12.1409546 3.11004746,12.1409546 3.11004746,19.2868526 C3.11004746,26.4327505 6.72528386,30.6515185 10.7665106,28.0833613 Z" id="Oval-133-Copy" fill="#FFFFFF" sketch:type="MSShapeGroup" transform="translate(8.463217, 20.490833) rotate(-18.000000) translate(-8.463217, -20.490833) "></path>
            <path d="M10.5885059,27.4723421 C13.1205315,25.8632663 13.6383819,19.2913591 13.6383819,16.5299354 C13.6383819,13.7685116 11.3998056,11.5299354 8.63838188,11.5299354 C5.87695813,11.5299354 6.54727916,30.0404992 10.5885059,27.4723421 Z" id="Oval-133-Copy-6" fill="#F2F8FC" sketch:type="MSShapeGroup" transform="translate(10.303126, 19.623384) rotate(-18.000000) translate(-10.303126, -19.623384) "></path>
            <path d="M12.9005359,21.3055765 C13.4019999,20.3213978 8.23357129,16.6829868 6.72996505,15.9168611 C5.22635881,15.1507355 3.60092818,15.3275023 3.09946412,16.311681 C2.59800006,17.2958596 3.41039681,18.7147616 4.91400305,19.4808872 C6.41760929,20.2470129 12.3990718,22.2897551 12.9005359,21.3055765 Z" id="Oval-133-Copy-4" fill="#FFFFFF" sketch:type="MSShapeGroup"></path>
            <g transform="translate(33.000000, 8.000000)" sketch:type="MSShapeGroup">
                <rect id="Rectangle-18" fill="#28354C" transform="translate(20.369991, 19.170935) rotate(16.000000) translate(-20.369991, -19.170935) " x="2.3699907" y="11.6709351" width="36" height="15"></rect>
                <rect id="Rectangle-18-Copy-2" fill="#4C596F" transform="translate(21.440529, 15.442103) rotate(16.000000) translate(-21.440529, -15.442103) " x="3.4405292" y="14.9421033" width="36" height="1"></rect>
                <rect id="Rectangle-18-Copy-5" fill="#4C596F" transform="translate(20.440529, 19.442103) rotate(16.000000) translate(-20.440529, -19.442103) " x="2.4405292" y="18.9421033" width="36" height="1"></rect>
                <rect id="Rectangle-18-Copy-3" fill="#4C596F" transform="translate(19.440529, 23.442103) rotate(16.000000) translate(-19.440529, -23.442103) " x="1.4405292" y="22.9421033" width="36" height="1"></rect>
                <path d="M10.7688835,6.74681356 L18.7688835,2.43717649 L26.7688835,6.74681356 L26.7688835,29.7468136 L18.7688835,34.7170265 L10.7688835,29.7468136 L10.7688835,6.74681356 Z" id="Rectangle-18-Copy" fill="#C3D4E6" transform="translate(18.768883, 18.577101) rotate(16.000000) translate(-18.768883, -18.577101) "></path>
                <path d="M10.9238367,5.64426413 L18.9238367,1.33462706 L18.9238367,33.6144771 L10.9238367,28.6442641 L10.9238367,5.64426413 Z" id="Rectangle-18-Copy-4" fill="#D6E2EF" transform="translate(14.923837, 17.474552) rotate(16.000000) translate(-14.923837, -17.474552) "></path>
            </g>
            <g id="Oval-133-+-Oval-133-Copy-6" transform="translate(2.000000, 4.000000)" fill="#FFFFFF" sketch:type="MSShapeGroup">
                <path d="M4,9 C6.76142375,9 9,8.76142375 9,6 C9,3.23857625 7.99999996,6.66133815e-16 4,0 C3.89254808e-08,-5.55111512e-16 -5.55111512e-17,3.77654874 0,6 C-5.55111512e-17,8.22345126 1.23857625,9 4,9 Z" id="Oval-133"></path>
            </g>
            <g id="Oval-133-+-Oval-133-Copy-8" transform="translate(3.000000, 4.000000)" fill="#F2F8FC" sketch:type="MSShapeGroup">
                <path d="M3,9 C5.76142375,9 8,8.76142375 8,6 C8,3.23857625 6.99999996,6.66133815e-16 3,0 C-0.999999961,-5.55111512e-16 0.238576251,9 3,9 Z" id="Oval-133"></path>
            </g>
            <g id="Oval-133-+-Oval-133-Copy-7" transform="translate(6.000000, 6.000000)" fill="#BDD7F1" sketch:type="MSShapeGroup">
                <path d="M-3.96127575e-13,1 L1,5 L5,4 L4,-1.0125234e-13 L-3.96127575e-13,1 Z" id="Oval-133"></path>
            </g>
        </g>
    </g>
</svg>