<?xml version="1.0" encoding="UTF-8" standalone="no"?>
<svg width="75px" height="46px" viewBox="0 0 75 46" version="1.1" xmlns="http://www.w3.org/2000/svg" xmlns:xlink="http://www.w3.org/1999/xlink" xmlns:sketch="http://www.bohemiancoding.com/sketch/ns">
    <!-- Generator: Sketch 3.3.1 (12002) - http://www.bohemiancoding.com/sketch -->
    <title>Slice 11</title>
    <desc>Created with Sketch.</desc>
    <defs>
        <linearGradient x1="0%" y1="50%" x2="94.0340909%" y2="50%" id="linearGradient-1">
            <stop stop-color="#FFD98A" offset="0%"></stop>
            <stop stop-color="#F9C55A" offset="100%"></stop>
        </linearGradient>
        <linearGradient x1="0%" y1="50%" x2="94.0340909%" y2="50%" id="linearGradient-2">
            <stop stop-color="#F27131" offset="0%"></stop>
            <stop stop-color="#F9C55A" offset="100%"></stop>
        </linearGradient>
        <linearGradient x1="0%" y1="42.113598%" x2="72.8726774%" y2="89.6273226%" id="linearGradient-3">
            <stop stop-color="#F5515F" offset="0%"></stop>
            <stop stop-color="#9F031B" offset="100%"></stop>
        </linearGradient>
    </defs>
    <g id="Page-1" stroke="none" stroke-width="1" fill="none" fill-rule="evenodd" sketch:type="MSPage">
        <path d="M0,23 C1.39414845e-14,-23.7247876 75,17.0379957 75,24 C75,29.9620053 1.39414847e-14,70.7247872 0,23 Z" id="Oval-171-Copy-2" fill="url(#linearGradient-1)" sketch:type="MSShapeGroup"></path>
        <path d="M1,23 C1,-18.977589 67,17.2559962 67,23 C67,28.7440047 1,64.9775886 1,23 Z" id="Oval-171-Copy-3" fill="url(#linearGradient-2)" sketch:type="MSShapeGroup"></path>
        <g id="Oval-40-Copy-2-+-Oval-40-Copy-3-Copy-Copy-Copy-Copy-Copy-Copy-Copy-Copy-Copy-Copy-Copy-Copy" sketch:type="MSLayerGroup" transform="translate(0.000000, 5.000000)">
            <circle id="Oval-40-Copy-2" stroke-opacity="0.0857110507" stroke="#FFFFFF" stroke-width="2" fill="url(#linearGradient-3)" sketch:type="MSShapeGroup" cx="20.5" cy="18.5" r="18.5"></circle>
            <path d="M16.0666857,19.3531784 C21.0284046,14.1218846 20.7516329,4.96698274 20.7516329,4.96698274 C20.7516329,4.96698274 18.3626984,14.2107322 14.8102984,17.623145 C11.2578984,21.0355578 2.75442089,23.9420007 2.75442089,23.9420007 C2.75442089,23.9420007 11.1049669,24.5844723 16.0666857,19.3531784 Z" id="Oval-40-Copy-3" fill="#F47171" sketch:type="MSShapeGroup" transform="translate(11.950721, 14.512503) rotate(-195.000000) translate(-11.950721, -14.512503) "></path>
        </g>
    </g>
</svg>