<?xml version="1.0" encoding="UTF-8" standalone="no"?>
<svg width="1036px" height="1030px" viewBox="0 0 1036 1030" version="1.1" xmlns="http://www.w3.org/2000/svg" xmlns:xlink="http://www.w3.org/1999/xlink" xmlns:sketch="http://www.bohemiancoding.com/sketch/ns">
    <!-- Generator: Sketch 3.3.1 (12002) - http://www.bohemiancoding.com/sketch -->
    <title>earth53</title>
    <desc>Created with Sketch.</desc>
    <defs>
        <linearGradient x1="50%" y1="0%" x2="50%" y2="100%" id="linearGradient-1">
            <stop stop-color="#89D592" offset="0%"></stop>
            <stop stop-color="#75D080" offset="100%"></stop>
        </linearGradient>
        <linearGradient x1="50%" y1="0%" x2="50%" y2="100%" id="linearGradient-2">
            <stop stop-color="#80D0E7" offset="0%"></stop>
            <stop stop-color="#5FB0DC" offset="100%"></stop>
        </linearGradient>
    </defs>
    <g id="Page-1" stroke="none" stroke-width="1" fill="none" fill-rule="evenodd" sketch:type="MSPage">
        <g id="earth53" sketch:type="MSLayerGroup">
            <g id="Group" sketch:type="MSShapeGroup">
                <path d="M778.179224,208.97782 L779.28979,217.122753 L766.506465,219.649713 L764.805172,237 L780.116808,237 L800.485065,235.127342 L811,223.191969 L799.823451,219.040535 L793.703522,212.317017 L784.511815,198.102868 L780.116808,178 L762.843959,181.361759 L758,188.446272 L758,196.43327 L766.317432,201.870746 L778.179224,208.97782 Z" id="Shape" fill="#000000"></path>
                <path d="M763.126866,220.725684 L764,208.639058 L754.395522,204 L740.962687,207.485562 L731,225.389818 L731,237 L742.619403,237 L763.126866,220.725684 Z" id="Shape" fill="#000000"></path>
                <path d="M484.318907,260.135 L481.01139,269.315 L465,269.315 L465,278.225 L468.808656,278.225 C468.808656,278.225 469.034169,280.115 469.359909,282.599 L479.182232,281.708 L485.321185,277.604 L486.924829,269.315 L494.867882,268.586 L498,261.62 L490.708428,260 L484.318907,260.135 L484.318907,260.135 Z" id="Shape" fill="#000000"></path>
                <path d="M438.6,273.662 L438,279.476 L449.112,278.774 L450.264,272.942 L443.592,269 L438.6,273.662 Z" id="Shape" fill="#000000"></path>
                <path d="M518,1024 C804.0835,1024 1036,802.034682 1036,512 C1036,221.965318 793.28,-3.36798869e-14 518,0 C219.04,-3.36798869e-14 0,229.230208 0,512 C0,794.769792 231.9165,1024 518,1024 Z" id="Oval-139" fill="url(#linearGradient-1)"></path>
                <path d="M974,287.75 L980.75,281 C982.802,289.465502 987.473,298.072489 994.25,308 L987.5,308 L974,308 L974,287.75 L974,287.75 Z M890.307692,186.692308 L890.307692,163 C898.658596,172.349423 906.499758,181.975866 914,193.461538 L907.230769,207 L870,207 L870,200.230769 L890.307692,186.692308 L890.307692,186.692308 Z M207,121.75 L207,121.75 L220.333333,121.75 L220.333333,115 L237,115 L237,121.75 L230.333333,135.25 L207,135.25 L207,121.75 L207,121.75 Z M223.666667,151 C224.606236,153.241 235.627106,151 237,151 C237.528036,151 236.577571,164.122 237,164.5 L213.666667,164.5 L207,157.75 L223.666667,151 L223.666667,151 Z M967.251701,374.233333 L939.714286,353.633333 L912.176871,353.633333 L912.176871,374.233333 L905.292517,374.233333 L898.408163,367.366667 L853.659864,353.633333 L853.659864,329.6 L795.142857,329.6 L774.489796,339.9 L753.836735,339.9 L740.068027,339.9 L715.972789,353.633333 L715.972789,381.1 L657.455782,429.166667 L664.340136,442.9 L674.666667,442.9 L667.782313,460.066667 L664.340136,460.066667 L664.340136,508.133333 L709.088435,556.2 L733.183673,556.2 L774.489796,556.2 L781.37415,542.466667 L808.911565,542.466667 L822.680272,556.2 L853.659864,563.066667 L846.77551,600.833333 L877.755102,669.5 L860.544218,707.266667 L867.428571,721 L877.755102,734.733333 L877.755102,779.366667 L898.408163,806.833333 L898.408163,837.733333 L919.061224,837.733333 C822.323794,955.653684 678.000412,1030 516.326531,1030 C231.718436,1030.02308 0,798.974767 0,515 C0,443.515821 14.7240409,375.378496 37.8639456,315.866667 L58.5170068,274.666667 C66.119278,262.947293 72.9951273,251.175601 79.170068,243.766667 L79.170068,250.633333 L58.5170068,274.666667 C53.0852607,287.529356 46.8807906,300.316646 37.8639456,315.866667 L37.8639456,339.9 L65.4013605,353.633333 L65.4013605,394.833333 L86.0544218,429.166667 L99.8231293,436.033333 L106.707483,422.3 L86.0544218,391.4 L79.170068,360.5 L92.9387755,360.5 L92.9387755,391.4 L127.360544,436.033333 L120.47619,449.766667 L134.244898,473.8 L178.993197,487.533333 L178.993197,480.666667 L196.204082,480.666667 L196.204082,494.4 L209.972789,494.4 L230.62585,501.266667 L265.047619,535.6 L302.911565,535.6 L309.795918,569.933333 L278.816327,587.1 L278.816327,614.566667 L278.816327,635.166667 L316.680272,683.233333 L316.680272,700.4 C315.964953,700.969658 330.13337,704.801228 337.333333,700.4 C333.58287,704.801228 363.632878,727.490588 361.428571,727.866667 L361.428571,813.7 L375.197279,817.133333 L368.312925,858.333333 L388.965986,882.366667 L382.081633,927 L406.176871,964.766667 L437.156463,992.233333 L468.136054,992.233333 L475.020408,985.366667 L450.92517,964.766667 L450.92517,951.033333 L454.367347,944.166667 L454.367347,933.866667 L444.040816,933.866667 L437.156463,920.133333 L444.040816,913.266667 L450.92517,896.1 L437.156463,889.233333 L437.156463,882.366667 L454.367347,882.366667 L481.904762,865.2 L495.673469,851.466667 L523.210884,806.833333 L516.326531,772.5 L523.210884,758.766667 L557.632653,758.766667 L574.843537,748.466667 L581.727891,683.233333 L605.823129,655.766667 L612.707483,635.166667 L592.054422,628.3 L574.843537,607.7 L530.095238,607.7 L495.673469,593.966667 L495.673469,569.933333 L481.904762,549.333333 L450.92517,542.466667 L430.272109,515 L413.061224,515 L413.061224,515 L382.081633,515 L368.312925,508.133333 L337.333333,501.266667 L309.795918,528.733333 L271.931973,521.866667 L271.931973,480.666667 L237.510204,473.8 L247.836735,449.766667 L240.952381,436.033333 L203.088435,460.066667 L185.877551,460.066667 L172.108844,442.9 L178.993197,422.3 L189.319728,394.833333 L223.741497,381.1 L285.70068,381.1 L285.70068,394.833333 L309.795918,408.566667 L302.911565,374.233333 L323.564626,360.5 L354.544218,339.9 L354.544218,322.733333 L388.965986,288.4 L419.945578,271.233333 L413.061224,271.233333 L444.040816,250.633333 L450.92517,250.633333 L454.367347,257.5 L461.251701,243.766667 L454.367347,243.766667 L450.92517,243.766667 L450.92517,230.033333 L461.251701,230.033333 L468.136054,230.033333 L475.020408,236.9 L481.904762,236.9 L495.673469,236.9 L495.673469,230.033333 L506,230.033333 L506,236.9 L495.673469,243.766667 L502.557823,250.633333 L523.210884,264.366667 C525.620479,260.846854 530.095238,264.366667 530.095238,264.366667 L530.095238,250.633333 L509.442177,236.9 L506,230.033333 L523.210884,223.166667 L523.210884,212.866667 L506,199.133333 L506,164.8 L481.904762,178.533333 L475.020408,178.533333 L475.020408,157.933333 L437.156463,147.633333 L419.945578,157.933333 L419.945578,192.266667 L395.85034,206 L382.081633,223.166667 L368.312925,230.033333 L368.312925,199.133333 L347.659864,199.133333 L337.333333,185.4 L330.44898,164.8 L375.197279,140.766667 L395.85034,133.9 L399.292517,151.066667 L406.176871,147.633333 L413.061224,140.766667 L430.272109,140.766667 L419.945578,133.9 L419.945578,123.6 L437.156463,123.6 L450.92517,109.866667 L481.904762,103 L502.557823,116.733333 L461.251701,140.766667 L506,151.066667 L509.442177,133.9 L530.095238,133.9 L543.863946,116.733333 L523.210884,116.733333 L523.210884,96.1333333 L481.904762,78.9666667 L450.92517,78.9666667 L430.272109,89.2666667 L430.272109,109.866667 L406.176871,109.866667 L406.176871,96.1333333 L430.272109,78.9666667 L388.965986,78.9666667 L382.081633,78.9666667 L375.197279,89.2666667 L388.965986,89.2666667 L388.965986,103 L361.428571,109.866667 L361.428571,116.733333 L330.44898,116.733333 C328.836914,118.617112 327.957175,100.659511 330.44898,96.1333333 C325.410564,100.659511 351.571203,100.220957 347.659864,96.1333333 L368.312925,78.9666667 L361.428571,78.9666667 L347.659864,89.2666667 L323.564626,89.2666667 L309.795918,72.1 L285.70068,72.1 L247.836735,89.2666667 L278.816327,89.2666667 L285.70068,96.1333333 L278.816327,103 L302.911565,103 L309.795918,116.733333 L278.816327,116.733333 L271.931973,109.866667 L247.836735,103 L237.510204,96.1333333 L209.972789,96.1333333 C298.370187,36.6538186 403.221101,0 516.326531,0 C647.16327,0 766.506714,48.6794102 853.659864,133.9 L853.659864,140.766667 L826.122449,151.066667 L815.795918,157.933333 L822.680272,171.666667 L833.006803,178.533333 L839.891156,192.266667 L860.544218,185.4 L867.428571,212.866667 L860.544218,212.866667 L839.891156,206 L822.680272,212.866667 L802.027211,236.9 L774.489796,243.766667 L771.047619,264.366667 L781.37415,264.366667 L781.37415,281.533333 L753.836735,274.666667 L726.29932,281.533333 L719.414966,295.266667 L726.29932,322.733333 L740.068027,329.6 L771.047619,329.6 L781.37415,329.6 L788.258503,315.866667 L815.795918,281.533333 L826.122449,281.533333 L846.77551,271.233333 L846.77551,281.533333 L884.639456,309 L884.639456,315.866667 L867.428571,315.866667 L874.312925,322.733333 L884.639456,329.6 L898.408163,322.733333 L898.408163,309 L898.408163,302.133333 L898.408163,295.266667 L874.312925,281.533333 L867.428571,264.366667 L884.639456,264.366667 L891.52381,271.233333 L912.176871,288.4 L912.176871,309 L932.829932,329.6 L939.714286,302.133333 L953.482993,288.4 L960.367347,315.866667 L974.136054,329.6 L998.231293,329.6 C1003.22577,342.463921 1007.90227,356.059071 1012,367.366667 L1012,374.233333 L967.251701,374.233333 Z M269,207.75 L282.5,201 L296,201 L289.25,221.25 L275.75,228 L269,207.75 L269,207.75 Z M334,246.75 L334,260.25 L309.818182,260.25 L296,253.5 L296,246.75 L316.727273,240 L327.090909,240 L327.090909,246.75 L334,246.75 L334,246.75 Z M354.25,263 L354.25,276.5 L347.5,283.25 L334,283.25 L334,263 L354.25,263 L354.25,263 Z M340,253.5 L340,240 L353.5,253.5 L340,253.5 L340,253.5 Z M347,281 L347,294.5 L340.25,301.25 L320,301.25 L320,287.75 L333.5,287.75 L333.5,281 L347,281 L347,281 Z M309.333333,263 L326,263 L302.666667,293 L296,286.333333 L296,276.333333 L309.333333,263 L309.333333,263 Z M379,281.75 L379,295.25 L358.75,295.25 L352,288.5 L352,275 L352,275 L379,281.75 L379,281.75 Z M358,269.75 L364.75,263 L371.5,269.75 L364.75,276.5 L358,269.75 L358,269.75 Z M1012,394 L1012,394 C1014.673,397.402 1015.51,400.804 1018.75,407.5 L1012,394 L1012,394 Z" id="Shape" fill="url(#linearGradient-2)"></path>
            </g>
        </g>
    </g>
</svg>