<?xml version="1.0" encoding="UTF-8" standalone="no"?>
<svg width="148px" height="137px" viewBox="0 0 148 137" version="1.1" xmlns="http://www.w3.org/2000/svg" xmlns:xlink="http://www.w3.org/1999/xlink" xmlns:sketch="http://www.bohemiancoding.com/sketch/ns">
    <!-- Generator: Sketch 3.3.1 (12002) - http://www.bohemiancoding.com/sketch -->
    <title>Slice 2</title>
    <desc>Created with Sketch.</desc>
    <defs>
        <radialGradient cx="50%" cy="0%" fx="50%" fy="0%" r="100%" id="radialGradient-1">
            <stop stop-color="#FFECBF" offset="0%"></stop>
            <stop stop-color="#FBE3A8" offset="51.564493%"></stop>
            <stop stop-color="#E4C884" offset="100%"></stop>
        </radialGradient>
        <radialGradient cx="50%" cy="0%" fx="50%" fy="0%" r="100%" id="radialGradient-2">
            <stop stop-color="#EBD08E" offset="0%"></stop>
            <stop stop-color="#F3D998" offset="51.564493%"></stop>
            <stop stop-color="#EAD08E" offset="100%"></stop>
        </radialGradient>
    </defs>
    <g id="Page-1" stroke="none" stroke-width="1" fill="none" fill-rule="evenodd" sketch:type="MSPage">
        <g id="Group" sketch:type="MSLayerGroup" transform="translate(-1.706278, 1.938000)">
            <path d="M83.4,7.2 C83.4,3.2235498 80.1764502,0 76.2,0 C72.2235498,0 69,3.2235498 69,7.2 C69,11.1764502 83.4,11.1764502 83.4,7.2 Z" id="Oval-15-Copy-3" fill="#A4B2C9" sketch:type="MSShapeGroup"></path>
            <path d="M72.5478072,3.40018425 C74.5003022,1.53949517 77.2442848,0.6 75.4353717,0.6 C71.881214,0.6 69.6,3.48121404 69.6,7.03537168 C69.6,7.93105545 70.6640344,5.19538242 72.5478072,3.40018425 Z" id="Oval-15-Copy-2" fill="#C6D3E9" sketch:type="MSShapeGroup"></path>
            <path d="M149.281051,48.1954893 C149.407283,47.7291109 149.430269,47.2769991 149.345508,46.8409433 C147.859637,39.1968014 113.825239,39.3814789 73.3275506,47.253432 C32.8298627,55.1253851 1.20453617,67.7036653 2.69040683,75.3478072 C2.86725351,76.2576044 3.5051662,77.0565026 4.5601662,77.7447403 L19.3444801,74.7260647 C17.497612,74.1868622 16.4166289,73.4441627 16.2317664,72.4931274 C15.2201097,67.2886052 41.4286018,57.8156785 74.7700718,51.3347532 C108.111542,44.853828 135.960253,43.8190988 136.97191,49.023621 C137.079917,49.5792668 136.877664,50.1835646 136.389595,50.8276792 L149.281051,48.1954893 L149.281051,48.1954893 Z" id="Oval-41-Copy-4" fill="#D45A5A" sketch:type="MSShapeGroup"></path>
            <ellipse id="Oval-1-Copy-9" fill="url(#radialGradient-1)" sketch:type="MSShapeGroup" cx="76.2" cy="79.8" rx="54" ry="54"></ellipse>
            <ellipse id="Oval-1-Copy-11" fill="url(#radialGradient-2)" sketch:type="MSShapeGroup" cx="114" cy="53.4" rx="1.8" ry="1.8"></ellipse>
            <circle id="Oval-1-Copy-12" fill="url(#radialGradient-2)" sketch:type="MSShapeGroup" cx="54.6" cy="66" r="3"></circle>
            <ellipse id="Oval-1-Copy-13" fill="url(#radialGradient-2)" sketch:type="MSShapeGroup" cx="35.4" cy="58.2" rx="1.8" ry="1.8"></ellipse>
            <circle id="Oval-1-Copy-14" fill="url(#radialGradient-2)" sketch:type="MSShapeGroup" cx="104.7" cy="47.1" r="4.5"></circle>
            <path d="M76.2,35.4 C89.454834,35.4 100.2,32.7941125 100.2,31.8 C100.2,30.8058875 89.454834,30 76.2,30 C62.945166,30 52.2,30.8058875 52.2,31.8 C52.2,32.7941125 62.945166,35.4 76.2,35.4 Z" id="Oval-11-Copy" fill="#F4E1B3" sketch:type="MSShapeGroup"></path>
            <rect id="Rectangle-3-Copy-9" fill="#F5F5F5" sketch:type="MSShapeGroup" x="52.2" y="16.8" width="48" height="15"></rect>
            <rect id="Rectangle-3-Copy-10" fill="#FFFFFF" sketch:type="MSShapeGroup" x="52.2" y="16.8" width="24" height="15"></rect>
            <rect id="Rectangle-3-Copy-11" fill="#CEEAEF" sketch:type="MSShapeGroup" x="70.2" y="25.8" width="12" height="6"></rect>
            <rect id="Rectangle-3-Copy-12" fill="#B5C9D7" sketch:type="MSShapeGroup" x="57" y="21" width="38.4" height="1.8"></rect>
            <rect id="Rectangle-3-Copy-13" fill="#C1D5E3" sketch:type="MSShapeGroup" x="57" y="21" width="19.2" height="1.8"></rect>
            <rect id="Rectangle-3-Copy-14" fill="#D7EFF3" sketch:type="MSShapeGroup" x="70.2" y="25.8" width="6" height="6"></rect>
            <rect id="Rectangle-3-Copy-15" opacity="0.25" fill="#C2C2C2" sketch:type="MSShapeGroup" x="52.2" y="16.8" width="48" height="2.4"></rect>
            <rect id="Rectangle-3-Copy-16" fill="#883B02" sketch:type="MSShapeGroup" x="49.2" y="7.8" width="54" height="9.6"></rect>
            <rect id="Rectangle-3-Copy-17" fill="#A05014" sketch:type="MSShapeGroup" x="49.2" y="7.8" width="27" height="9.6"></rect>
            <path d="M149.339412,46.57102 C149.363778,46.6535911 149.38419,46.7371212 149.400613,46.8216105 C150.884408,54.4550752 119.244222,67.0272612 78.7302799,74.9023738 C42.3572238,81.9725797 11.1976017,82.8531144 4.13425438,77.435329 L18.4046186,74.4020695 C25.6773705,77.2542016 50.0759299,75.6762685 78.4527181,70.1603796 C111.437447,63.7487977 137.445265,54.4174923 137.041412,49.1850406 L149.339412,46.57102 Z" id="Oval-41-Copy-5" fill="#D45A5A" sketch:type="MSShapeGroup"></path>
            <path d="M51.9072,14.4 L51.9072,10.7808 L53.3472,10.7808 C53.753602,10.7808 54.0743988,10.879199 54.3096,11.076 C54.5448012,11.272801 54.6624,11.571198 54.6624,11.9712 C54.6624,12.7904041 54.2352043,13.2 53.3808,13.2 L52.848,13.2 L52.848,14.4 L51.9072,14.4 Z M52.848,11.5392 L52.848,12.4416 L53.0064,12.4416 C53.0960004,12.4416 53.1639998,12.4408 53.2104,12.4392 C53.2568002,12.4376 53.3159996,12.4288001 53.388,12.4128 C53.4600004,12.3967999 53.5135998,12.3744001 53.5488,12.3456 C53.5840002,12.3167999 53.6151999,12.2736003 53.6424,12.216 C53.6696001,12.1583997 53.6832,12.0864004 53.6832,12 C53.6832,11.9103996 53.6704001,11.8360003 53.6448,11.7768 C53.6191999,11.7175997 53.5888002,11.6720002 53.5536,11.64 C53.5183998,11.6079998 53.4664003,11.5848001 53.3976,11.5704 C53.3287997,11.5559999 53.2696002,11.5472 53.22,11.544 C53.1703998,11.5408 53.0992005,11.5392 53.0064,11.5392 L52.848,11.5392 Z M56.9208,10.7808 L56.9208,13.6032 L58.0488,13.6032 L58.0488,14.4 L55.98,14.4 L55.98,10.7808 L56.9208,10.7808 Z M61.4736,13.7712 L60.1776,13.7712 L59.928,14.4 L58.9296,14.4 L60.3216,10.7808 L61.3488,10.7808 L62.712,14.4 L61.7088,14.4 L61.4736,13.7712 Z M61.2192,13.0512 L60.8352,11.8992 L60.8256,11.8992 L60.4368,13.0512 L61.2192,13.0512 Z M63.9048,14.4 L63.9048,10.7808 L64.8456,10.7808 L66.5688,12.9936 L66.5784,12.9936 L66.5784,10.7808 L67.5192,10.7808 L67.5192,14.4 L66.5784,14.4 L64.8552,12.1824 L64.8456,12.1824 L64.8456,14.4 L63.9048,14.4 Z M71.0928,11.5776 L69.9744,11.5776 L69.9744,12.1824 L71.0352,12.1824 L71.0352,12.9792 L69.9744,12.9792 L69.9744,13.6032 L71.0928,13.6032 L71.0928,14.4 L69.0336,14.4 L69.0336,10.7808 L71.0928,10.7808 L71.0928,11.5776 Z M74.0136,11.5776 L74.0136,14.4 L73.0728,14.4 L73.0728,11.5776 L72.2952,11.5776 L72.2952,10.7808 L74.7912,10.7808 L74.7912,11.5776 L74.0136,11.5776 Z M78.3624,14.4 L78.9768,10.7808 L79.9032,10.7808 L80.6376,12.7152 L81.4152,10.7808 L82.3512,10.7808 L82.8984,14.4 L81.9576,14.4 L81.6936,12.3168 L81.684,12.3168 L80.8152,14.4 L80.4408,14.4 L79.6104,12.3168 L79.6008,12.3168 L79.2984,14.4 L78.3624,14.4 Z M86.016,10.6608 C86.3648017,10.6608 86.6911985,10.7383992 86.9952,10.8936 C87.2992015,11.0488008 87.5455991,11.2703986 87.7344,11.5584 C87.9232009,11.8464014 88.0176,12.1679982 88.0176,12.5232 C88.0176,13.1088029 87.8296019,13.5879981 87.4536,13.9608 C87.0775981,14.3336019 86.5984029,14.52 86.016,14.52 C85.4335971,14.52 84.9544019,14.3336019 84.5784,13.9608 C84.2023981,13.5879981 84.0144,13.1088029 84.0144,12.5232 C84.0144,12.1679982 84.1087991,11.8464014 84.2976,11.5584 C84.4864009,11.2703986 84.7327985,11.0488008 85.0368,10.8936 C85.3408015,10.7383992 85.6671983,10.6608 86.016,10.6608 L86.016,10.6608 Z M86.016,11.5728 C85.7375986,11.5728 85.497601,11.668799 85.296,11.8608 C85.094399,12.052801 84.9936,12.2751987 84.9936,12.528 C84.9936,12.8352015 85.092799,13.091999 85.2912,13.2984 C85.489601,13.504801 85.7311986,13.608 86.016,13.608 C86.3008014,13.608 86.542399,13.504801 86.7408,13.2984 C86.939201,13.091999 87.0384,12.8352015 87.0384,12.528 C87.0384,12.2751987 86.937601,12.052801 86.736,11.8608 C86.534399,11.668799 86.2944014,11.5728 86.016,11.5728 L86.016,11.5728 Z M91.9416,10.8672 L91.9416,11.9952 C91.8455995,11.8671994 91.7248007,11.7688003 91.5792,11.7 C91.4335993,11.6311997 91.2792008,11.5968 91.116,11.5968 C90.8311986,11.5968 90.5992009,11.692799 90.42,11.8848 C90.2407991,12.076801 90.1512,12.3151986 90.1512,12.6 C90.1512,12.8880014 90.2415991,13.1239991 90.4224,13.308 C90.6032009,13.4920009 90.8391985,13.584 91.1304,13.584 C91.2840008,13.584 91.4327993,13.5496003 91.5768,13.4808 C91.7208007,13.4119997 91.8423995,13.3184006 91.9416,13.2 L91.9416,14.328 C91.5767982,14.4400006 91.3000009,14.496 91.1112,14.496 C90.5959974,14.496 90.143202,14.3184018 89.7528,13.9632 C89.3655981,13.6143983 89.172,13.1584028 89.172,12.5952 C89.172,12.0767974 89.3495982,11.6352018 89.7048,11.2704 C89.8840009,11.0879991 90.0951988,10.9448005 90.3384,10.8408 C90.5816012,10.7367995 90.8295987,10.6848 91.0824,10.6848 C91.3608014,10.6848 91.6471985,10.7455994 91.9416,10.8672 L91.9416,10.8672 Z M94.3632,12.1776 L95.7216,12.1776 L95.7216,10.7808 L96.6624,10.7808 L96.6624,14.4 L95.7216,14.4 L95.7216,12.9168 L94.3632,12.9168 L94.3632,14.4 L93.4224,14.4 L93.4224,10.7808 L94.3632,10.7808 L94.3632,12.1776 Z M100.3944,13.7712 L99.0984,13.7712 L98.8488,14.4 L97.8504,14.4 L99.2424,10.7808 L100.2696,10.7808 L101.6328,14.4 L100.6296,14.4 L100.3944,13.7712 Z M100.14,13.0512 L99.756,11.8992 L99.7464,11.8992 L99.3576,13.0512 L100.14,13.0512 Z" id="PLANET-MOCHA" fill="#FFC03E" sketch:type="MSShapeGroup"></path>
        </g>
    </g>
</svg>