<?xml version="1.0" encoding="UTF-8" standalone="no"?>
<svg width="148px" height="137px" viewBox="0 0 148 137" version="1.1" xmlns="http://www.w3.org/2000/svg" xmlns:xlink="http://www.w3.org/1999/xlink" xmlns:sketch="http://www.bohemiancoding.com/sketch/ns">
    <!-- Generator: Sketch 3.3.1 (12002) - http://www.bohemiancoding.com/sketch -->
    <title>Slice 2</title>
    <desc>Created with Sketch.</desc>
    <defs>
        <radialGradient cx="50%" cy="0%" fx="50%" fy="0%" r="100%" id="radialGradient-1">
            <stop stop-color="#FFECBF" offset="0%"></stop>
            <stop stop-color="#FBE3A8" offset="51.564493%"></stop>
            <stop stop-color="#E4C884" offset="100%"></stop>
        </radialGradient>
        <radialGradient cx="50%" cy="0%" fx="50%" fy="0%" r="100%" id="radialGradient-2">
            <stop stop-color="#EBD08E" offset="0%"></stop>
            <stop stop-color="#F3D998" offset="51.564493%"></stop>
            <stop stop-color="#EAD08E" offset="100%"></stop>
        </radialGradient>
    </defs>
    <g id="Page-1" stroke="none" stroke-width="1" fill="none" fill-rule="evenodd" sketch:type="MSPage">
        <g id="Group" sketch:type="MSLayerGroup" transform="translate(0.293722, 1.938000)">
            <path d="M81.4,7.2 C81.4,3.2235498 78.1764502,0 74.2,0 C70.2235498,0 67,3.2235498 67,7.2 C67,11.1764502 81.4,11.1764502 81.4,7.2 Z" id="Oval-15-Copy-3" fill="#C3CCDC" sketch:type="MSShapeGroup"></path>
            <path d="M70.5478072,3.40018425 C72.5003022,1.53949517 75.2442848,0.6 73.4353717,0.6 C69.881214,0.6 67.6,3.48121404 67.6,7.03537168 C67.6,7.93105545 68.6640344,5.19538242 70.5478072,3.40018425 Z" id="Oval-15-Copy-2" fill="#DAE1EB" sketch:type="MSShapeGroup"></path>
            <path d="M147.281051,48.1954893 C147.407283,47.7291109 147.430269,47.2769991 147.345508,46.8409433 C145.859637,39.1968014 111.825239,39.3814789 71.3275506,47.253432 C30.8298627,55.1253851 -0.795463831,67.7036653 0.690406835,75.3478072 C0.867253506,76.2576044 1.5051662,77.0565026 2.5601662,77.7447403 L17.3444801,74.7260647 C15.497612,74.1868622 14.4166289,73.4441627 14.2317664,72.4931274 C13.2201097,67.2886052 39.4286018,57.8156785 72.7700718,51.3347532 C106.111542,44.853828 133.960253,43.8190988 134.97191,49.023621 C135.079917,49.5792668 134.877664,50.1835646 134.389595,50.8276792 L147.281051,48.1954893 L147.281051,48.1954893 Z" id="Oval-41-Copy-4" fill="#D45A5A" sketch:type="MSShapeGroup"></path>
            <ellipse id="Oval-1-Copy-9" fill="url(#radialGradient-1)" sketch:type="MSShapeGroup" cx="74.2" cy="79.8" rx="54" ry="54"></ellipse>
            <ellipse id="Oval-1-Copy-11" fill="url(#radialGradient-2)" sketch:type="MSShapeGroup" cx="112" cy="53.4" rx="1.8" ry="1.8"></ellipse>
            <circle id="Oval-1-Copy-12" fill="url(#radialGradient-2)" sketch:type="MSShapeGroup" cx="52.6" cy="66" r="3"></circle>
            <ellipse id="Oval-1-Copy-13" fill="url(#radialGradient-2)" sketch:type="MSShapeGroup" cx="33.4" cy="58.2" rx="1.8" ry="1.8"></ellipse>
            <circle id="Oval-1-Copy-14" fill="url(#radialGradient-2)" sketch:type="MSShapeGroup" cx="102.7" cy="47.1" r="4.5"></circle>
            <path d="M74.2,35.4 C87.454834,35.4 98.2,32.7941125 98.2,31.8 C98.2,30.8058875 87.454834,30 74.2,30 C60.945166,30 50.2,30.8058875 50.2,31.8 C50.2,32.7941125 60.945166,35.4 74.2,35.4 Z" id="Oval-11-Copy" fill="#F4E1B3" sketch:type="MSShapeGroup"></path>
            <rect id="Rectangle-3-Copy-9" fill="#F5F5F5" sketch:type="MSShapeGroup" x="50.2" y="16.8" width="48" height="15"></rect>
            <rect id="Rectangle-3-Copy-10" fill="#FFFFFF" sketch:type="MSShapeGroup" x="50.2" y="16.8" width="24" height="15"></rect>
            <rect id="Rectangle-3-Copy-11" fill="#CEEAEF" sketch:type="MSShapeGroup" x="68.2" y="25.8" width="12" height="6"></rect>
            <rect id="Rectangle-3-Copy-14" fill="#D7EFF3" sketch:type="MSShapeGroup" x="68.2" y="25.8" width="6" height="6"></rect>
            <rect id="Rectangle-3-Copy-15" opacity="0.25" fill="#C2C2C2" sketch:type="MSShapeGroup" x="50.2" y="16.8" width="48" height="2.4"></rect>
            <rect id="Rectangle-3-Copy-16" fill="#52D667" sketch:type="MSShapeGroup" x="47.2" y="7.8" width="54" height="9.6"></rect>
            <rect id="Rectangle-3-Copy-17" fill="#63E076" sketch:type="MSShapeGroup" x="47.2" y="7.8" width="27" height="9.6"></rect>
            <path d="M147.339412,46.57102 C147.363778,46.6535911 147.38419,46.7371212 147.400613,46.8216105 C148.884408,54.4550752 117.244222,67.0272612 76.7302799,74.9023738 C40.3572238,81.9725797 9.19760171,82.8531144 2.13425438,77.435329 L16.4046186,74.4020695 C23.6773705,77.2542016 48.0759299,75.6762685 76.4527181,70.1603796 C109.437447,63.7487977 135.445265,54.4174923 135.041412,49.1850406 L147.339412,46.57102 Z" id="Oval-41-Copy-5" fill="#D45A5A" sketch:type="MSShapeGroup"></path>
        </g>
    </g>
</svg>