<?xml version="1.0" encoding="UTF-8" standalone="no"?>
<svg width="54px" height="36px" viewBox="0 0 54 36" version="1.1" xmlns="http://www.w3.org/2000/svg" xmlns:xlink="http://www.w3.org/1999/xlink" xmlns:sketch="http://www.bohemiancoding.com/sketch/ns">
    <!-- Generator: Sketch 3.3.1 (12002) - http://www.bohemiancoding.com/sketch -->
    <title>Group + Oval 189 + Oval 189 Copy 3</title>
    <desc>Created with Sketch.</desc>
    <defs>
        <linearGradient x1="50%" y1="1.91737925e-15%" x2="50%" y2="94.0340909%" id="linearGradient-1">
            <stop stop-color="#FFFFFF" offset="0%"></stop>
            <stop stop-color="#E4ECEF" offset="100%"></stop>
        </linearGradient>
    </defs>
    <g id="Page-1" stroke="none" stroke-width="1" fill="none" fill-rule="evenodd" sketch:type="MSPage">
        <g id="Group-+-Oval-189-+-Oval-189-Copy-3" sketch:type="MSLayerGroup" stroke="#212121" fill="url(#linearGradient-1)">
            <g id="Group" transform="translate(2.000000, 0.000000)" sketch:type="MSShapeGroup">
                <path d="M23.0984881,5.13858083 C22.2483502,5.01260037 21.3452946,4.94601936 20.3890615,4.94601936 C13.8635084,4.94601936 9.81443979,8.04670312 8.15923089,11.9657323 C-3.5328785,13.6292855 -2.48781263,29.6522761 10.1945307,29.6522765 C10.7207817,29.6522765 11.2269955,29.6246878 11.7130934,29.5716812 L11.7130934,29.5716812 C13.2806739,32.1153592 16.2614119,33.9999999 20.6109385,34 C24.9484371,34.0000001 27.9247071,32.1257685 29.4957465,29.5927689 C29.9175497,29.6319842 30.3541405,29.6522764 30.8054692,29.6522765 C42.9370471,29.6522768 44.4201613,14.9907512 34.2920791,12.2612213 C36.7603569,8.74025087 34.9321043,3 28.5191722,3 C26.0237236,3 24.2224883,3.86919022 23.0984881,5.13858083 L23.0984881,5.13858083 Z" id="Oval-171-Copy-16"></path>
                <path d="M16.3165167,0.564973361 C14.368735,0.564973361 13.1814078,1.51769865 12.7284339,2.70170137 C11.4352393,5.5 13.4585751,6.80602584 13.4585751,6.80602584 C13.6523907,7.9561272 14.6378041,8.99999996 16.3808922,9 C17.6393759,9.00000003 18.5029121,8.45586827 18.9587342,7.7204813 C19.0811163,7.73186637 19.207789,7.73775768 19.3387377,7.73775768 C22.8585984,7.73775777 23.2889102,3.48118695 20.3503448,2.68874077 C21.066491,1.66652347 20.5360408,0 18.6753905,0 C17.9513599,0 17.4287488,0.252345549 17.1026309,0.620878306 C16.8559715,0.584303333 16.5939586,0.564973361 16.3165167,0.564973361 Z" id="Oval-171-Copy-19"></path>
            </g>
            <path d="M8.86568955,34.8502884 C7.93547397,35.5710192 6.7678339,36 5.5,36 C2.46243388,36 0,33.5375661 0,30.5 C0,27.4624339 2.46243388,25 5.5,25 C5.52713933,25 5.55423275,25.0001966 5.58127891,25.0005884 C6.76790726,22.0684464 9.64239787,20 13,20 C16.3885699,20 19.2850756,22.1067776 20.4511229,25.0819389 C23.035387,25.5324581 25,27.7867991 25,30.5 C25,33.5375661 22.5375661,36 19.5,36 C18.425162,36 17.4223355,35.6916818 16.5751373,35.1586621 C15.4992045,35.6970439 14.2849818,36 13,36 C11.4870645,36 10.0722202,35.5800219 8.86568955,34.8502884 Z" id="Oval-189" sketch:type="MSShapeGroup"></path>
            <path d="M37.8656895,21.8502884 C36.935474,22.5710192 35.7678339,23 34.5,23 C31.4624339,23 29,20.5375661 29,17.5 C29,14.4624339 31.4624339,12 34.5,12 C34.5271393,12 34.5542328,12.0001966 34.5812789,12.0005884 C35.7679073,9.06844636 38.6423979,7 42,7 C45.3885699,7 48.2850756,9.10677765 49.4511229,12.0819389 C52.035387,12.5324581 54,14.7867991 54,17.5 C54,20.5375661 51.5375661,23 48.5,23 C47.425162,23 46.4223355,22.6916818 45.5751373,22.1586621 C44.4992045,22.6970439 43.2849818,23 42,23 C40.4870645,23 39.0722202,22.5800219 37.8656895,21.8502884 Z" id="Oval-189-Copy-3" sketch:type="MSShapeGroup"></path>
        </g>
    </g>
</svg>